<?xml version="1.0" encoding="UTF-8" standalone="no"?>
<svg
   xmlns:dc="http://purl.org/dc/elements/1.1/"
   xmlns:cc="http://creativecommons.org/ns#"
   xmlns:rdf="http://www.w3.org/1999/02/22-rdf-syntax-ns#"
   xmlns:svg="http://www.w3.org/2000/svg"
   xmlns="http://www.w3.org/2000/svg"
   xmlns:xlink="http://www.w3.org/1999/xlink"
   xmlns:sodipodi="http://sodipodi.sourceforge.net/DTD/sodipodi-0.dtd"
   xmlns:inkscape="http://www.inkscape.org/namespaces/inkscape"
   version="1.0"
   width="1066.5972pt"
   height="1066.4187pt"
   viewBox="0 0 1066.5972 1066.4187"
   preserveAspectRatio="xMidYMid meet"
   id="svg12"
   sodipodi:docname="dice.svg"
   inkscape:version="0.92.3 (2405546, 2018-03-11)">
  <defs
     id="defs16">
    <linearGradient
       inkscape:collect="always"
       id="linearGradient4590">
      <stop
         style="stop-color:#ef2929;stop-opacity:1"
         offset="0"
         id="stop4586" />
      <stop
         style="stop-color:#ffffff;stop-opacity:1"
         offset="1"
         id="stop4588" />
    </linearGradient>
    <linearGradient
       inkscape:collect="always"
       id="linearGradient4582">
      <stop
         style="stop-color:#ef2929;stop-opacity:1"
         offset="0"
         id="stop4578" />
      <stop
         style="stop-color:#cc0000;stop-opacity:1"
         offset="1"
         id="stop4580" />
    </linearGradient>
    <linearGradient
       inkscape:collect="always"
       xlink:href="#linearGradient4582"
       id="linearGradient4584"
       x1="574.05908"
       y1="1057.6555"
       x2="613.68842"
       y2="-1685.2595"
       gradientUnits="userSpaceOnUse"
       gradientTransform="matrix(0.89123236,0,0,0.89123236,2.5201544,-33.818697)" />
    <linearGradient
       inkscape:collect="always"
       xlink:href="#linearGradient4590"
       id="linearGradient4592"
       x1="595.55566"
       y1="1234.5125"
       x2="595.55566"
       y2="37.945976"
       gradientUnits="userSpaceOnUse"
       gradientTransform="matrix(0.89123236,0,0,0.89123236,2.5201544,-33.81868)" />
  </defs>
  <sodipodi:namedview
     pagecolor="#ffffff"
     bordercolor="#666666"
     borderopacity="1"
     objecttolerance="10"
     gridtolerance="10"
     guidetolerance="10"
     inkscape:pageopacity="0"
     inkscape:pageshadow="2"
     inkscape:window-width="1600"
     inkscape:window-height="837"
     id="namedview14"
     showgrid="false"
     inkscape:snap-bbox="true"
     inkscape:snap-page="false"
     inkscape:zoom="0.13828125"
     inkscape:cx="703.21451"
     inkscape:cy="620.83834"
     inkscape:window-x="0"
     inkscape:window-y="30"
     inkscape:window-maximized="1"
     inkscape:current-layer="svg12"
     inkscape:bbox-nodes="true"
     inkscape:bbox-paths="true"
     inkscape:snap-bbox-edge-midpoints="true"
     inkscape:object-paths="true"
     inkscape:snap-intersection-paths="true"
     fit-margin-top="0"
     fit-margin-left="0"
     fit-margin-right="0"
     fit-margin-bottom="0"
     showborder="false" />
  <metadata
     id="metadata2">
Created by potrace 1.15, written by Peter Selinger 2001-2017
<rdf:RDF>
  <cc:Work
     rdf:about="">
    <dc:format>image/svg+xml</dc:format>
    <dc:type
       rdf:resource="http://purl.org/dc/dcmitype/StillImage" />
    <dc:title></dc:title>
  </cc:Work>
</rdf:RDF>
</metadata>
  <path
     inkscape:connector-curvature="0"
     id="path4568"
     d="M 0.67305403,535.46332 C -12.447134,189.91704 365.06546,-87.813239 690.98422,26.41726 1024.7538,116.06427 1179.1105,558.6218 973.29358,836.3301 789.00975,1128.8154 320.63799,1145.4018 116.12624,866.6849 41.747012,773.43761 0.38269053,654.72475 0.67305403,535.46332 Z"
     style="fill:url(#linearGradient4592);fill-opacity:1;stroke:#000000;stroke-width:0.68076444" />
  <path
     style="fill:url(#linearGradient4584);fill-opacity:1;stroke:#000000;stroke-width:0.60670686"
     d="M 1007.982,531.20067 C 1016.5656,724.1259 880.53754,902.31976 705.44588,972.69022 600.26395,1017.4454 478.88972,1019.3824 372.11737,978.73973 168.50158,913.15804 41.680922,691.35901 59.92562,482.73822 68.291727,363.15499 131.72388,252.33346 218.86058,172.2565 403.52573,9.8161285 718.92334,20.632392 882.68216,208.10606 961.3581,296.46171 1008.8664,412.31038 1007.982,531.20067 Z"
     id="path27"
     inkscape:connector-curvature="0" />
  <path
     inkscape:connector-curvature="0"
     style="fill:#ffffff;stroke:#000000;stroke-width:0.43615457px;stroke-linecap:butt;stroke-linejoin:miter;stroke-opacity:1"
     d="m 196.39336,335.61639 298.62049,-170.50736 333.64101,141.23721 17.31801,24.32707 0.81811,377.03367 -293.4903,193.36078 -25.03197,7.49579 L 193.67504,730.94888 181.49141,356.71865 Z"
     id="path11" />
  <g
     transform="matrix(0.05815394,0,0,-0.05815394,181.27334,908.78164)"
     id="g10"
     style="fill:#a40000;stroke:none">
    <path
       inkscape:connector-curvature="0"
       d="M 5395,12788 C 5363,12776 271,9895 255,9879 c -6,-6 -4,-14 5,-23 8,-7 780,-377 1715,-821 935,-445 2229,-1060 2875,-1367 923,-440 1186,-561 1225,-565 43,-5 60,-1 113,26 50,25 4815,3030 5004,3155 59,39 71,55 59,74 -6,10 -408,182 -2396,1027 -159,68 -954,405 -1765,750 -811,345 -1501,636 -1533,646 -65,21 -117,23 -162,7 z m 98,-573 c 388,-51 657,-235 657,-449 0,-197 -232,-382 -571,-455 -504,-108 -1044,30 -1187,304 -36,68 -37,169 -4,237 63,127 218,238 430,307 201,65 448,86 675,56 z m 1899,-804 c 298,-52 507,-173 579,-337 17,-38 21,-61 17,-120 -9,-136 -101,-245 -284,-337 -101,-51 -199,-83 -326,-109 -161,-33 -464,-32 -616,0 -348,75 -554,239 -554,438 0,223 301,423 717,477 98,13 360,6 467,-12 z m 1835,-812 c 225,-27 448,-121 551,-233 57,-62 73,-90 88,-153 53,-230 -199,-446 -617,-528 -117,-23 -363,-31 -485,-15 -232,29 -438,109 -554,216 -86,80 -112,129 -118,219 -4,63 -1,80 23,134 89,197 429,354 810,374 71,4 206,-2 302,-14 z m -6505,-28 c 367,-63 600,-235 600,-441 0,-222 -279,-416 -684,-476 -138,-20 -432,-14 -543,11 -285,64 -475,183 -540,339 -24,56 -19,152 10,213 79,170 329,307 651,357 137,21 370,20 506,-3 z m 1781,-856 c 396,-52 660,-232 661,-451 0,-337 -649,-576 -1239,-458 -101,21 -199,55 -296,105 -299,155 -334,420 -80,608 222,165 601,242 954,196 z m 1822,-845 c 427,-38 726,-225 728,-453 2,-212 -240,-393 -625,-468 -134,-27 -413,-32 -538,-10 -306,53 -513,167 -591,326 -28,57 -31,72 -27,132 5,90 36,149 118,227 189,178 573,279 935,246 z"
       id="path4"
       style="fill:#a40000" />
    <path
       inkscape:connector-curvature="0"
       d="M 11430,9941 C 11238,9820 6913,7086 6670,6934 6519,6838 6374,6741 6348,6717 l -48,-43 v -74 c 0,-41 11,-829 25,-1750 14,-921 34,-2307 45,-3080 26,-1869 23,-1760 55,-1760 14,0 4991,3310 5058,3363 21,18 45,43 52,57 10,20 11,659 6,3290 -5,2891 -8,3265 -21,3267 -8,1 -49,-19 -90,-46 z m -343,-1192 c 156,-75 231,-245 220,-499 -22,-492 -399,-1014 -792,-1097 -90,-19 -162,-10 -242,28 -98,47 -170,150 -204,289 -18,75 -15,276 5,369 99,449 414,841 750,932 96,26 180,19 263,-22 z M 9605,5728 c 97,-50 174,-158 206,-288 8,-33 13,-105 13,-180 -1,-140 -28,-273 -83,-413 -120,-303 -336,-558 -564,-666 -105,-50 -171,-65 -261,-59 -169,12 -290,132 -333,331 -22,103 -13,291 20,418 105,403 397,765 700,865 100,33 228,30 302,-8 z M 7917,2615 c 112,-33 199,-123 243,-248 31,-88 39,-300 16,-418 -87,-440 -408,-849 -740,-944 -87,-25 -214,-17 -281,17 -86,44 -145,119 -187,237 -29,81 -36,286 -14,403 34,178 126,395 234,548 60,86 202,231 278,286 157,113 324,157 451,119 z"
       id="path6"
       style="fill:#a40000" />
    <path
       inkscape:connector-curvature="0"
       d="M 0,9478 C 0,9465 18,8902 40,8225 119,5807 140,5142 169,4220 209,2961 206,3022 239,2990 268,2961 5928,0 5954,0 c 9,0 19,6 22,14 6,15 -81,6139 -92,6475 l -6,194 -32,33 c -24,26 -374,196 -1611,785 C 3366,7914 2065,8533 1343,8876 622,9219 24,9500 16,9500 6,9500 0,9491 0,9478 Z M 815,8455 c 342,-81 679,-480 775,-920 27,-125 30,-298 6,-399 -33,-138 -116,-250 -224,-303 -72,-35 -196,-43 -291,-18 -341,89 -670,488 -767,932 -23,106 -24,306 -1,392 40,150 143,273 260,310 74,24 160,26 242,6 z M 4436,6679 c 154,-27 300,-112 444,-258 194,-195 330,-453 381,-722 18,-95 15,-272 -5,-349 -65,-250 -251,-375 -485,-326 -304,64 -623,397 -754,788 -62,184 -80,402 -44,537 46,172 148,288 287,325 67,18 99,19 176,5 z M 2727,5481 c 123,-43 223,-109 344,-230 342,-340 492,-864 341,-1185 -180,-380 -703,-259 -1035,240 -288,433 -304,959 -34,1142 71,49 115,61 212,61 74,1 105,-4 172,-28 z M 973,4344 c 29,-9 85,-33 125,-55 288,-154 536,-503 618,-871 23,-103 23,-312 0,-398 -91,-333 -404,-423 -730,-210 -171,112 -326,293 -431,505 -98,198 -135,344 -135,539 0,179 43,307 137,403 103,105 249,135 416,87 z M 4622,2478 c 332,-123 634,-517 713,-929 19,-103 19,-285 0,-367 -34,-145 -111,-249 -223,-304 -62,-31 -74,-33 -167,-33 -119,1 -191,22 -305,89 -282,166 -509,499 -586,856 -24,113 -25,301 -1,389 44,164 129,266 260,313 74,26 217,20 309,-14 z"
       id="path8"
       style="fill:#a40000" />
  </g>
</svg>
